<svg xmlns="http://www.w3.org/2000/svg" width="24" height="24" viewBox="0 0 24 24"><path fill-rule="evenodd" d="M13.6544 3.9738c-.7219.8228-1.3652 2.3777-1.5791 5.3026-.033.4507-.2684.8663-.6152 1.105-.3703.2548-.8883.3083-1.3241-.0504C9.1493 9.5188 8.7368 7.9102 9 4.9825c-.0032-.416-.0954-.7108-.2246-.917-.1294-.2068-.3142-.354-.552-.4475-.4942-.1942-1.2294-.1546-2.0406.164C4.5557 4.4214 3 6.0247 3 8.0043c0 .8148.1782 1.6473.9733 2.3451.8222.7218 2.3762 1.3651 5.2992 1.5793.4507.0331.8662.2685 1.1048.6153.2548.3702.3084.8882-.0502 1.3239-.8122.987-2.4208 1.3997-5.3488 1.1365-.416.0031-.7108.0953-.917.2244-.2068.1295-.354.3143-.4475.5521-.1942.4942-.1546 1.2294.164 2.0406.6393 1.6271 2.2426 3.1828 4.2222 3.1828.815 0 1.6477-.1783 2.3456-.9738.7219-.8228 1.3652-2.3778 1.5791-5.3026.033-.4508.2684-.8663.6152-1.105.3703-.2548.8883-.3083 1.3241.0504.9867.8122 1.3992 2.4208 1.1361 5.3484.0031.416.0953.7109.2245.9171.1294.2068.3142.3541.552.4475.4942.1942 1.2294.1546 2.0406-.1641C19.4443 19.5829 21 17.9796 21 16c0-.8148-.1782-1.6473-.9733-2.3452-.8222-.7217-2.3762-1.365-5.2992-1.5792-.4507-.0331-.8662-.2685-1.1048-.6153-.2548-.3702-.3084-.8882.0502-1.3239.8122-.987 2.4208-1.3997 5.3488-1.1365.4159-.003.7108-.0953.917-.2245.2068-.1294.3541-.3142.4475-.552.1942-.4942.1546-1.2294-.1641-2.0406C19.5829 4.5557 17.9796 3 16 3c-.815 0-1.6476.1783-2.3456.9738m-.7517-.6595C13.8595 2.2238 15.0214 2 16 2c2.5204 0 4.4171 1.9443 5.1529 3.8172.3688.9388.4855 1.9536.164 2.7719-.1644.4184-.4429.7806-.8474 1.0339C20.068 9.8744 19.5726 10 19 10h-.0227l-.0226-.002c-2.9236-.2658-4.0464.2108-4.5096.7738-.0292.0354-.0273.0517-.0273.0528-.0001.0064.0021.0303.0286.0688.0582.0846.1909.1729.3542.1848 3.0091.2206 4.8231.8923 5.8858 1.8251C21.7763 13.86 22 15.0216 22 16c0 2.5204-1.9443 4.4171-3.8172 5.1529-.9388.3688-1.9536.4855-2.7719.164-.4184-.1644-.7806-.4429-1.0339-.8474C14.1256 20.068 14 19.5726 14 19v-.0227l.0021-.0226c.2657-2.9233-.2108-4.0461-.7737-4.5095-.0341-.0281-.0505-.0274-.0526-.0273h-.0001c-.0065 0-.0303.0022-.0689.0287-.0845.0582-.1728.1908-.1847.3541-.2203 3.0109-.8919 4.8259-1.8248 5.8892-.9568 1.0905-2.1187 1.3143-3.0973 1.3143-2.5204 0-4.4171-1.9443-5.1529-3.8172-.3688-.9388-.4855-1.9537-.164-2.7719.1644-.4185.4429-.7806.8474-1.0339.4015-.2514.8969-.377 1.4695-.377h.0227l.0226.002c2.9237.2658 4.0464-.2108 4.5096-.7738.0281-.0341.0274-.0505.0274-.0526v-.0002c0-.0064-.0022-.0303-.0287-.0688-.0582-.0846-.1909-.1729-.3542-.1849-3.009-.2205-4.823-.8922-5.8858-1.825C2.2237 10.1442 2 8.9825 2 8.0042 2 5.4837 3.9443 3.587 5.8172 2.8513c.9388-.3688 1.9536-.4855 2.7719-.164.4184.1643.7806.4429 1.0339.8474.2514.4015.377.8969.377 1.4695v.0227l-.002.0225c-.2658 2.9234.2107 4.0462.7736 4.5096.0341.028.0505.0274.0526.0273h.0001c.0065 0 .0303-.0022.0689-.0287.0845-.0582.1728-.1908.1847-.3542.2203-3.0108.8919-4.8258 1.8248-5.889" clip-rule="evenodd"/></svg>