<svg xmlns="http://www.w3.org/2000/svg" width="24" height="24" viewBox="0 0 24 24"><path d="M14 2H7c-.552 0-1 .448-1 1v17H5V3c0-1.105.895-2 2-2h7c1.105 0 2 .895 2 2v17h-1V3c0-.552-.448-1-1-1M3.5 21a.5.5 0 0 0 0 1h14a.5.5 0 0 0 0-1z"/><path d="M8 5.5a.5.5 0 0 1 .5-.5h4a.5.5 0 0 1 0 1h-4a.5.5 0 0 1-.5-.5M8 7.5a.5.5 0 0 1 .5-.5h4a.5.5 0 0 1 0 1h-4a.5.5 0 0 1-.5-.5M19.354 4.147a.5.5 0 0 0-.707.707l2.793 2.793a.5.5 0 0 1 0 .707l-1 1A1.5 1.5 0 0 0 20 10.414V15.5a.5.5 0 0 1-1 0v-3c0-.828-.672-1.5-1.5-1.5H17v1h.5a.5.5 0 0 1 .5.5v3c0 .828.672 1.5 1.5 1.5s1.5-.672 1.5-1.5v-5.086a.5.5 0 0 1 .146-.353l1-1c.586-.586.586-1.536 0-2.121z"/></svg>