<svg xmlns="http://www.w3.org/2000/svg" width="24" height="24" viewBox="0 0 24 24"><path d="M9.626 1.783c2.2366-2.2366 6.1195-1.8609 8.2328.2525 2.0312 2.0311 2.4572 5.6968.5018 7.9644h-1.3952l.4389-.4388c1.7803-1.7803 1.5393-5.0266-.2526-6.8185S12.1135.7097 10.3332 2.49l-2.374 2.374-.707-.7071z"/><path fill-rule="evenodd" d="M3 12c0-.5523.4477-1 1-1h16c.5523 0 1 .4477 1 1v8c0 1.6569-1.3431 3-3 3H6c-1.6569 0-3-1.3431-3-3zm1 8v-8h16v8c0 1.1046-.8954 2-2 2H6c-1.1046 0-2-.8954-2-2" clip-rule="evenodd"/></svg>